<svg width="1em" height="1em" viewBox="0 0 16 16" class="bi bi-arrow-return-left" fill="currentColor" xmlns="http://www.w3.org/2000/svg">
	<path d="M7.5 7a1 1 0 0 0 1 1h2a1 1 0 0 0 1-1v-6a1 1 0 0 0-1-1h-2a1 1 0 0 0-1 1zm-5 -3a1 1 0 0 0 1 1h2a1 1 0 0 0 1-1v-3a1 1 0 0 0-1-1h-2a1 1 0 0 0-1 1z" />
	<path fill-rule="evenodd" d="M14.5 7a.5.5 0 0 1 .5.5v3a1.5 1.5 0 0 1-1.5 1.5h-10.793l2.147 2.146a.5.5 0 0 1-.708.708l-3-3a.5.5 0 0 1 0-.708l3-3a.5.5 0 1 1 .708.708l-2.146 2.147h10.793a.5.5 0 0 0 .5-.5v-3a.5.5 0 0 1 .5-.5z" />
</svg>
