<svg clip-rule="evenodd" fill-rule="evenodd" stroke-linejoin="round" stroke-miterlimit="2" width="24" height="24" viewBox="0 0 24 24" xmlns="http://www.w3.org/2000/svg"><path d="m0 3c0-1.646 1.354-3 3-3h18c1.646 0 3 1.354 3 3v18c0 1.646-1.354 3-3 3h-18c-1.646 0-3-1.354-3-3zm22.5 0c0-.823-.677-1.5-1.5-1.5h-18c-.823 0-1.5.677-1.5 1.5v18c0 .823.677 1.5 1.5 1.5h18c.823 0 1.5-.677 1.5-1.5z"/><path d="m16 15v4c0 1.104-.896 2-2 2h-4c-1.104 0-2-.896-2-2v-4c0-1.104.896-2 2-2h4c1.104 0 2 .896 2 2z"/></svg>
