<svg width="1em" height="1em" viewBox="0 0 16 16" class="bi bi-align-bottom" fill="currentColor" xmlns="http://www.w3.org/2000/svg">
	<path d="M4 3a2 2 0 0 1 2-2h4a2 2 0 0 1 2 2v14a2 2 0 0 1-2 2h-4a2 2 0 0 1-2-2zM1 10.5a.5.5 0 0 1 .5-.5h13a.5.5 0 0 1 0 1h-13a.5.5 0 0 1-.5-.5z" fill-opacity="1" mask="url(#a)" />
	<mask id="a">
		<rect x="0" y="0" width="100%" height="100%" fill="#fff" />
		<text x="8" y="10" font-size="8px" fill="#000" text-anchor="middle" font-family="serif">
			T
		</text>
	</mask>
</svg>
