<svg width="1em" height="1em" viewBox="0 0 16 16" class="bi bi-align-bottom" fill="currentColor" xmlns="http://www.w3.org/2000/svg">
<rect x="0" y="0" width="16" height="16" fill="green"/>
	<path fill-rule="evenodd" d="M2 3a1 1 0 0 1 1-1h3a1 1 0 0 1 1 1v3a1 1 0 0 1-1 1h-3a1 1 0 0 1-1-1z" />
	<path fill-rule="evenodd" d="M1.5 1a.5.5 0 0 0-.5.5v13a.5.5 0 0 0 .5.5h13a.5.5 0 0 0 .5-.5v-13a.5.5 0 0 0-.5-.5zm0-1a1.5 1.5 0 0 0-1.5 1.5v13a1.5 1.5 0 0 0 1.5 1.5h13a1.5 1.5 0 0 0 1.5-1.5v-13a1.5 1.5 0 0 0 -1.5 -1.5z"/>
</svg>
