<svg width="1em" height="1em" viewBox="0 0 16 16" class="bi bi-distribute-horizontal" fill="currentColor" xmlns="http://www.w3.org/2000/svg">
	<path d="M5 14a1 1 0 0 0 1 1h2a1 1 0 0 0 1-1v-8a1 1 0 0 0-1-1h-2a1 1 0 0 0-1 1zm5 -4a1 1 0 0 0 1 1h2a1 1 0 0 0 1-1v-4a1 1 0 0 0-1-1h-2a1 1 0 0 0-1 1z" />
	<path d="M13 5h1.5a.5.5 0 0 1 .5.5v9a.5.5 0 0 1-.5.5h-9a.5.5 0 0 1-.5-.5v-1.5h-1v1.5A1.5 1.5 0 0 0 5.5 16h9a1.5 1.5 0 0 0 1.5-1.5v-9A1.5 1.5 0 0 0 14.5 4h-1.5z" transform-origin="center" transform="rotate(180) translate(-1, -1)" />
</svg>
