<svg height="36" viewBox="0 0 36 36" width="36" xmlns="http://www.w3.org/2000/svg" xmlns:xlink="http://www.w3.org/1999/xlink"><defs><path id="a" d="m24.045 25.186c-.7280036.9706715-1.629328 1.6683312-2.704 2.093s-2.1579945.637-3.25.637c-1.3866736 0-2.6259945-.2556641-3.718-.767s-2.0193295-1.200329-2.782-2.067-1.3433313-1.8633277-1.742-2.99c-.39866866-1.1266723-.598-2.2966606-.598-3.51 0-1.3520068.18633147-2.6389939.559-3.861.3726685-1.2220061.9273296-2.2923287 1.664-3.211s1.6553278-1.65099727 2.756-2.197 2.3876593-.819 3.861-.819c1.0053384 0 1.9543289.11699883 2.847.351s1.6899965.60233082 2.392 1.105c.7020035.5026692 1.291331 1.1396628 1.768 1.911s.8016658 1.7029945.975 2.795h-2.47c-.1213339-.7106702-.346665-1.3216641-.676-1.833s-.7366642-.931665-1.222-1.261-1.0356636-.5763325-1.651-.741-1.2696632-.247-1.963-.247c-1.1266723 0-2.092996.2253311-2.899.676s-1.4646641 1.0443296-1.976 1.781c-.5113359.7366703-.8883321 1.5773286-1.131 2.522s-.364 1.9109951-.364 2.899c0 .9706715.1386653 1.9023289.416 2.795s.684664 1.6813299 1.222 2.366 1.2003294 1.2306646 1.989 1.638 1.7029948.611 2.743.611c.9706715 0 1.8286629-.1559984 2.574-.468s1.3736641-.7409973 1.885-1.287.8969987-1.1873296 1.157-1.924.3726668-1.5296624.338-2.379h-5.928v-2.08h8.138v9.776h-1.56z"/></defs><g fill="none"><path d="m30 .47058824c3.0497883.00968706 5.5197247 2.47962349 5.5294118 5.52941176v24c-.0096871 3.0497883-2.4796235 5.5197247-5.5294118 5.5294118h-24c-3.04978827-.0096871-5.5197247-2.4796235-5.52941176-5.5294118v-24c.00968706-3.04978827 2.47962349-5.5197247 5.52941176-5.52941176zm0-.47058824h-24c-3.3 0-6 2.7-6 6v24c0 3.3 2.7 6 6 6h24c3.3 0 6-2.7 6-6v-24c0-3.3-2.7-6-6-6z" fill="currentColor"/><use fill="currentColor" xlink:href="#a"/><use fill="currentColor" xlink:href="#a"/></g></svg>
