<svg clip-rule="evenodd" fill-rule="evenodd" stroke-linejoin="round" stroke-miterlimit="2" viewBox="0 0 256 256" xmlns="http://www.w3.org/2000/svg" xmlns:xlink="http://www.w3.org/1999/xlink"><linearGradient id="a" gradientTransform="matrix(447.401 355.147 -355.147 447.401 76.079 10.798)" gradientUnits="userSpaceOnUse" x1="0" x2="1" y1="0" y2="0"><stop offset="0" stop-color="#6610f2"/><stop offset="1" stop-color="#9013fe"/></linearGradient><path d="m0 0h256v256h-256z" fill="url(#a)" transform="scale(-1)" transform-origin="center"/><path d="m56.481 53.32c-.966-27.74 20.647-53.32 49.861-53.32h299.353c29.214 0 50.827 25.58 49.861 53.32-.928 26.647.277 61.165 8.964 89.31 8.715 28.232 23.411 46.077 47.48 48.37v26c-24.069 2.293-38.765 20.138-47.48 48.37-8.687 28.145-9.892 62.663-8.964 89.311.966 27.739-20.647 53.319-49.861 53.319h-299.353c-29.214 0-50.827-25.58-49.86-53.319.927-26.648-.278-61.166-8.966-89.311-8.714-28.232-23.446-46.077-47.516-48.37v-26c24.069-2.293 38.802-20.138 47.516-48.37 8.688-28.145 9.893-62.663 8.965-89.31z" fill="url(#a)" transform="matrix(.5 0 0 .5 0 26)" filter="drop-shadow(0 0 12px rgba(0,0,0,0.25))"/><path d="m432.4 415.6c-2.5-1.7-5.9-1-7.6 1.5-9.9 14.9-30.9 15.7-32 15.7h-.5c-25.9 0-35.8 22.1-36.2 23-1.2 2.8.1 6 2.8 7.2.7.3 1.5.5 2.2.5 2.1 0 4.1-1.2 5-3.3.1-.2 6.9-15.4 24.4-16.4v28.3c-.7 6.1-3.6 10.9-8.7 14.5-5.3 3.7-12.4 5.6-21.1 5.6-10.4 0-18.9-3.6-25.2-10.7-6.4-7.1-9.6-17.2-9.6-30.2l.1-31.2c.5-11.5 3.6-20.6 9.5-27.1 6.4-7.1 14.8-10.7 25.2-10.7 8.7 0 15.8 1.9 21.1 5.6s8.3 8.8 8.8 15.4v.7c0 3.8 3.1 6.9 6.9 6.9s6.9-3.1 6.9-6.9v-.7c-1-9.9-5.5-17.7-13.6-23.6s-18.2-8.8-30.4-8.8c-14.5 0-26.2 4.8-35.1 14.3-8.4 8.9-12.8 20.6-13.3 35 0 1-.1 2-.1 3l.1 28.1h-.1c0 15.9 4.5 28.6 13.4 38.1s20.6 14.3 35.1 14.3c12.2 0 22.3-2.9 30.4-8.8 7.4-5.4 11.8-12.5 13.3-21.3l.3-31.4c9.1-2.2 21.5-7.2 29.3-19 2-2.5 1.3-5.9-1.3-7.6z" fill="#fff" transform="translate(-230.578 -309.3)"/></svg>
