<svg clip-rule="evenodd" fill-rule="evenodd" stroke-linejoin="round" stroke-miterlimit="2" viewBox="0 0 24 24" width="24" height="24" xmlns="http://www.w3.org/2000/svg"><path d="m3.5 12c0-.411.338-.75.75-.75h5.689l-1.72-1.719c-.141-.141-.22-.332-.22-.531 0-.412.339-.751.751-.751.199 0 .39.079.531.22l3 3c.141.141.22.332.22.531s-.079.39-.22.531l-3 3c-.141.141-.332.22-.531.22-.412 0-.751-.339-.751-.751 0-.199.079-.39.22-.531l1.72-1.719h-5.689c-.412 0-.75-.339-.75-.75" fill-rule="nonzero"/><path d="m1.75 1c-.411 0-.75.339-.75.75v20.5c0 .411.339.75.75.75s.75-.339.75-.75v-20.5c0-.411-.339-.75-.75-.75z"/><path d="m23 4.011v15.978c0 1.631-1.371 3.011-3.125 3.011h-3.25c-1.754 0-3.125-1.38-3.125-3.011v-15.978c0-1.631 1.371-3.011 3.125-3.011h3.25c1.754 0 3.125 1.38 3.125 3.011zm-1.5 0c0-.834-.728-1.511-1.625-1.511h-3.25c-.897 0-1.625.677-1.625 1.511v15.978c0 .834.728 1.511 1.625 1.511h3.25c.897 0 1.625-.677 1.625-1.511z"/></svg>
