<svg clip-rule="evenodd" fill-rule="evenodd" stroke-linejoin="round" stroke-miterlimit="2" width="24" height="24" viewBox="0 0 24 24" xmlns="http://www.w3.org/2000/svg"><path d="m0 3c0-1.646 1.354-3 3-3h18c1.646 0 3 1.354 3 3v18c0 1.646-1.354 3-3 3h-18c-1.646 0-3-1.354-3-3zm22.5 0c0-.823-.677-1.5-1.5-1.5h-18c-.823 0-1.5.677-1.5 1.5v18c0 .823.677 1.5 1.5 1.5h18c.823 0 1.5-.677 1.5-1.5z"/><path d="m3.22 12.531c-.141-.141-.22-.332-.22-.531s.079-.39.22-.531l3-3c.141-.14.332-.219.531-.219.412 0 .751.338.751.75 0 .199-.079.391-.22.531l-1.72 1.719h12.876l-1.72-1.719c-.141-.14-.22-.332-.22-.531 0-.412.339-.75.751-.75.199 0 .39.079.531.219l3 3c.141.141.22.332.22.531s-.079.39-.22.531l-3 3c-.141.14-.332.219-.531.219-.412 0-.751-.338-.751-.75 0-.199.079-.391.22-.531l1.72-1.719h-12.876l1.72 1.719c.141.14.22.332.22.531 0 .412-.339.75-.751.75-.199 0-.39-.079-.531-.219l-3-3z" fill-rule="nonzero"/></svg>
